<svg width="50" height="22" viewBox="0 0 50 22" fill="none" xmlns="http://www.w3.org/2000/svg">
<rect width="49.5" height="22" rx="3" fill="#E9F896"/>
<path d="M10.6321 14V6.72727H12.1697V12.7322H15.2876V14H10.6321ZM22.906 10.3636C22.906 11.1567 22.7556 11.8314 22.455 12.3878C22.1567 12.9441 21.7495 13.3691 21.2334 13.6626C20.7196 13.9538 20.142 14.0994 19.5004 14.0994C18.8541 14.0994 18.2741 13.9527 17.7604 13.6591C17.2466 13.3655 16.8406 12.9406 16.5423 12.3842C16.244 11.8279 16.0949 11.1544 16.0949 10.3636C16.0949 9.57055 16.244 8.89583 16.5423 8.33949C16.8406 7.78314 17.2466 7.35937 17.7604 7.06818C18.2741 6.77462 18.8541 6.62784 19.5004 6.62784C20.142 6.62784 20.7196 6.77462 21.2334 7.06818C21.7495 7.35937 22.1567 7.78314 22.455 8.33949C22.7556 8.89583 22.906 9.57055 22.906 10.3636ZM21.347 10.3636C21.347 9.84991 21.2701 9.41667 21.1162 9.06392C20.9647 8.71117 20.7504 8.44366 20.4734 8.26136C20.1964 8.07907 19.8721 7.98793 19.5004 7.98793C19.1287 7.98793 18.8044 8.07907 18.5274 8.26136C18.2504 8.44366 18.035 8.71117 17.8811 9.06392C17.7296 9.41667 17.6538 9.84991 17.6538 10.3636C17.6538 10.8774 17.7296 11.3106 17.8811 11.6634C18.035 12.0161 18.2504 12.2836 18.5274 12.4659C18.8044 12.6482 19.1287 12.7393 19.5004 12.7393C19.8721 12.7393 20.1964 12.6482 20.4734 12.4659C20.7504 12.2836 20.9647 12.0161 21.1162 11.6634C21.2701 11.3106 21.347 10.8774 21.347 10.3636ZM29.0674 9.07812C29.0177 8.9053 28.9479 8.7526 28.8579 8.62003C28.768 8.48509 28.6579 8.37145 28.5277 8.27912C28.3998 8.18442 28.253 8.11222 28.0873 8.0625C27.924 8.01278 27.7429 7.98793 27.544 7.98793C27.1723 7.98793 26.8456 8.08026 26.5639 8.26491C26.2845 8.44957 26.0667 8.71828 25.9105 9.07102C25.7542 9.4214 25.6761 9.84991 25.6761 10.3565C25.6761 10.8632 25.753 11.294 25.9069 11.6491C26.0608 12.0043 26.2786 12.2753 26.5603 12.4624C26.8421 12.647 27.1747 12.7393 27.5582 12.7393C27.9062 12.7393 28.2033 12.6778 28.4495 12.5547C28.6981 12.4292 28.8875 12.2528 29.0177 12.0256C29.1503 11.7983 29.2166 11.5296 29.2166 11.2195L29.5291 11.2656H27.6541V10.108H30.6974V11.0241C30.6974 11.6634 30.5625 12.2126 30.2926 12.6719C30.0227 13.1288 29.651 13.4815 29.1775 13.7301C28.704 13.9763 28.1619 14.0994 27.5511 14.0994C26.8693 14.0994 26.2703 13.9491 25.7542 13.6484C25.2381 13.3454 24.8357 12.9157 24.5468 12.3594C24.2604 11.8007 24.1172 11.1378 24.1172 10.3707C24.1172 9.78125 24.2024 9.25568 24.3728 8.79403C24.5457 8.33002 24.7871 7.93703 25.0973 7.61506C25.4074 7.29309 25.7684 7.04806 26.1804 6.87997C26.5923 6.71188 27.0386 6.62784 27.5191 6.62784C27.9311 6.62784 28.3146 6.68821 28.6697 6.80895C29.0248 6.92732 29.3397 7.09541 29.6143 7.31321C29.8913 7.53101 30.1174 7.79025 30.2926 8.09091C30.4678 8.3892 30.5802 8.71828 30.6299 9.07812H29.0674ZM38.7357 10.3636C38.7357 11.1567 38.5853 11.8314 38.2847 12.3878C37.9864 12.9441 37.5792 13.3691 37.0631 13.6626C36.5493 13.9538 35.9717 14.0994 35.3301 14.0994C34.6838 14.0994 34.1038 13.9527 33.5901 13.6591C33.0763 13.3655 32.6703 12.9406 32.372 12.3842C32.0737 11.8279 31.9246 11.1544 31.9246 10.3636C31.9246 9.57055 32.0737 8.89583 32.372 8.33949C32.6703 7.78314 33.0763 7.35937 33.5901 7.06818C34.1038 6.77462 34.6838 6.62784 35.3301 6.62784C35.9717 6.62784 36.5493 6.77462 37.0631 7.06818C37.5792 7.35937 37.9864 7.78314 38.2847 8.33949C38.5853 8.89583 38.7357 9.57055 38.7357 10.3636ZM37.1767 10.3636C37.1767 9.84991 37.0998 9.41667 36.9459 9.06392C36.7944 8.71117 36.5801 8.44366 36.3031 8.26136C36.0261 8.07907 35.7018 7.98793 35.3301 7.98793C34.9584 7.98793 34.6341 8.07907 34.3571 8.26136C34.0801 8.44366 33.8647 8.71117 33.7108 9.06392C33.5593 9.41667 33.4835 9.84991 33.4835 10.3636C33.4835 10.8774 33.5593 11.3106 33.7108 11.6634C33.8647 12.0161 34.0801 12.2836 34.3571 12.4659C34.6341 12.6482 34.9584 12.7393 35.3301 12.7393C35.7018 12.7393 36.0261 12.6482 36.3031 12.4659C36.5801 12.2836 36.7944 12.0161 36.9459 11.6634C37.0998 11.3106 37.1767 10.8774 37.1767 10.3636Z" fill="black"/>
</svg>
