<svg width="35" height="37" viewBox="0 0 35 37" fill="none" xmlns="http://www.w3.org/2000/svg">
<path d="M6.74407 8.53294C8.40813 8.53294 9.75712 7.18395 9.75712 5.51989C9.75712 3.85583 8.40813 2.50684 6.74407 2.50684C5.08001 2.50684 3.73102 3.85583 3.73102 5.51989C3.73102 7.18395 5.08001 8.53294 6.74407 8.53294Z" stroke="#0300A5" stroke-width="1.5" stroke-miterlimit="10" stroke-linecap="round" stroke-linejoin="round"/>
<path d="M27.8353 8.53294C29.4993 8.53294 30.8483 7.18395 30.8483 5.51989C30.8483 3.85583 29.4993 2.50684 27.8353 2.50684C26.1712 2.50684 24.8222 3.85583 24.8222 5.51989C24.8222 7.18395 26.1712 8.53294 27.8353 8.53294Z" stroke="#0300A5" stroke-width="1.5" stroke-miterlimit="10" stroke-linecap="round" stroke-linejoin="round"/>
<path d="M17.1396 7.02611C18.8036 7.02611 20.1526 5.67712 20.1526 4.01305C20.1526 2.34899 18.8036 1 17.1396 1C15.4755 1 14.1265 2.34899 14.1265 4.01305C14.1265 5.67712 15.4755 7.02611 17.1396 7.02611Z" stroke="#0300A5" stroke-width="1.5" stroke-miterlimit="10" stroke-linecap="round" stroke-linejoin="round"/>
<path d="M9.30519 11.6967C9.00388 11.6967 8.85323 11.5459 8.55192 11.5459H6.74407H4.93622C3.4297 11.5459 2.07382 12.7512 1.92317 14.2577L1.01929 21.9408C0.868639 22.8447 1.6219 23.5981 2.52582 23.5981H3.12837L3.88164 34.1438H9.90774L10.0585 31.1307" stroke="#0300A5" stroke-width="1.5" stroke-miterlimit="10" stroke-linecap="round" stroke-linejoin="round"/>
<path d="M24.6715 31.1307L24.8222 34.1438H30.8483L31.6015 23.5981H32.2042C33.1081 23.5981 33.8614 22.8447 33.7107 21.9408L32.8067 14.2577C32.6561 12.7512 31.3002 11.5459 29.7937 11.5459H27.9858H26.1781C25.8768 11.5459 25.4248 11.546 25.1235 11.6967" stroke="#0300A5" stroke-width="1.5" stroke-miterlimit="10" stroke-linecap="round" stroke-linejoin="round"/>
<path d="M23.316 28.1174L22.1108 21.9405C22.8641 21.7898 23.4667 21.0366 23.316 20.1327L22.2614 13.0521C22.1108 11.3949 20.7549 10.0391 19.0978 10.0391H17.1393H15.1807C13.6742 10.0391 12.3184 11.3949 12.0171 13.0521L10.9625 20.1327C10.8118 21.0366 11.4144 21.7898 12.1677 21.9405L10.9625 28.1174H14.1262L15.4821 35.65H18.4951L19.851 28.1174H23.316Z" stroke="#0300A5" stroke-width="1.5" stroke-miterlimit="10" stroke-linecap="round" stroke-linejoin="round"/>
</svg>
