<svg width="228" height="30" viewBox="0 0 228 30" fill="currentColor" xmlns="http://www.w3.org/2000/svg">
<path d="M161.415 24V5.81818H167.283C168.573 5.81818 169.65 6.06676 170.515 6.56392C171.385 7.05516 172.039 7.72396 172.477 8.57031C172.92 9.41667 173.142 10.3696 173.142 11.429C173.142 12.4884 172.923 13.4442 172.485 14.2965C172.047 15.1429 171.396 15.8146 170.532 16.3118C169.668 16.803 168.594 17.0487 167.31 17.0487H162.693V15.5572H167.265C168.218 15.5572 169.008 15.3796 169.636 15.0245C170.263 14.6635 170.731 14.1722 171.038 13.5508C171.352 12.9293 171.509 12.2221 171.509 11.429C171.509 10.6359 171.352 9.92862 171.038 9.30717C170.731 8.68572 170.26 8.19744 169.627 7.84233C168.999 7.48722 168.203 7.30966 167.239 7.30966H163.075V24H161.415ZM181.865 24.2841C180.687 24.2841 179.645 23.9852 178.74 23.3874C177.84 22.7897 177.136 21.964 176.627 20.9105C176.118 19.8511 175.863 18.6289 175.863 17.244C175.863 15.8472 176.118 14.6191 176.627 13.5597C177.136 12.4943 177.84 11.6657 178.74 11.0739C179.645 10.4761 180.687 10.1772 181.865 10.1772C183.043 10.1772 184.081 10.4761 184.981 11.0739C185.881 11.6716 186.585 12.5002 187.094 13.5597C187.609 14.6191 187.866 15.8472 187.866 17.244C187.866 18.6289 187.612 19.8511 187.103 20.9105C186.594 21.964 185.887 22.7897 184.981 23.3874C184.081 23.9852 183.043 24.2841 181.865 24.2841ZM181.865 22.837C182.812 22.837 183.614 22.5825 184.271 22.0735C184.928 21.5645 185.425 20.8868 185.762 20.0405C186.106 19.1941 186.277 18.262 186.277 17.244C186.277 16.226 186.106 15.2908 185.762 14.4386C185.425 13.5863 184.928 12.9027 184.271 12.3878C183.614 11.8729 182.812 11.6154 181.865 11.6154C180.924 11.6154 180.122 11.8729 179.459 12.3878C178.802 12.9027 178.302 13.5863 177.959 14.4386C177.621 15.2908 177.453 16.226 177.453 17.244C177.453 18.262 177.621 19.1941 177.959 20.0405C178.302 20.8868 178.802 21.5645 179.459 22.0735C180.116 22.5825 180.918 22.837 181.865 22.837ZM191.335 24V10.3636H192.871V12.4588H192.987C193.259 11.7723 193.732 11.2189 194.407 10.7987C195.088 10.3725 195.857 10.1594 196.715 10.1594C196.845 10.1594 196.991 10.1624 197.15 10.1683C197.31 10.1742 197.443 10.1802 197.55 10.1861V11.793C197.479 11.7811 197.354 11.7634 197.177 11.7397C196.999 11.716 196.807 11.7042 196.6 11.7042C195.89 11.7042 195.256 11.8551 194.7 12.157C194.15 12.4529 193.715 12.8642 193.395 13.391C193.075 13.9177 192.916 14.5185 192.916 15.1932V24H191.335ZM206.472 10.3636V11.7397H199.965V10.3636H206.472ZM201.998 7.09659H203.587V20.44C203.587 21.0082 203.684 21.455 203.88 21.7805C204.075 22.1001 204.33 22.328 204.643 22.4641C204.957 22.5943 205.291 22.6594 205.646 22.6594C205.854 22.6594 206.031 22.6476 206.179 22.6239C206.327 22.5943 206.457 22.5647 206.57 22.5352L206.907 23.9645C206.753 24.0237 206.564 24.0769 206.339 24.1243C206.114 24.1776 205.836 24.2042 205.504 24.2042C204.924 24.2042 204.365 24.0769 203.826 23.8224C203.294 23.5679 202.856 23.1892 202.513 22.6861C202.169 22.183 201.998 21.5586 201.998 20.8129V7.09659ZM213.869 24.3107C213.047 24.3107 212.295 24.1509 211.615 23.8313C210.934 23.5058 210.392 23.0382 209.99 22.4286C209.587 21.8131 209.386 21.0674 209.386 20.1914C209.386 19.5167 209.513 18.9485 209.768 18.4869C210.022 18.0252 210.383 17.6464 210.851 17.3505C211.319 17.0546 211.872 16.8208 212.511 16.6491C213.15 16.4775 213.855 16.3443 214.624 16.2496C215.388 16.1549 216.033 16.0721 216.559 16.0011C217.092 15.93 217.498 15.8176 217.776 15.6637C218.054 15.5098 218.193 15.2612 218.193 14.918V14.5984C218.193 13.6692 217.915 12.9382 217.358 12.4055C216.808 11.867 216.015 11.5977 214.979 11.5977C213.997 11.5977 213.195 11.8137 212.573 12.2457C211.958 12.6778 211.526 13.1868 211.277 13.7727L209.777 13.2312C210.085 12.4854 210.511 11.8906 211.055 11.4467C211.6 10.9969 212.209 10.6744 212.884 10.479C213.559 10.2778 214.242 10.1772 214.935 10.1772C215.456 10.1772 215.997 10.2453 216.559 10.3814C217.128 10.5175 217.654 10.7543 218.14 11.0916C218.625 11.4231 219.019 11.8877 219.32 12.4854C219.622 13.0773 219.773 13.829 219.773 14.7404V24H218.193V21.8427H218.095C217.906 22.2451 217.625 22.6358 217.252 23.0146C216.879 23.3933 216.412 23.7041 215.849 23.9467C215.287 24.1894 214.627 24.3107 213.869 24.3107ZM214.083 22.8636C214.923 22.8636 215.651 22.6772 216.267 22.3043C216.882 21.9315 217.356 21.4373 217.687 20.8217C218.024 20.2003 218.193 19.5167 218.193 18.771V16.8001C218.075 16.9125 217.876 17.0131 217.598 17.1019C217.326 17.1907 217.009 17.2706 216.648 17.3416C216.293 17.4067 215.938 17.4629 215.583 17.5103C215.228 17.5576 214.908 17.5991 214.624 17.6346C213.855 17.7293 213.198 17.8772 212.653 18.0785C212.109 18.2797 211.691 18.5579 211.401 18.913C211.111 19.2622 210.966 19.712 210.966 20.2624C210.966 21.091 211.262 21.7332 211.854 22.1889C212.446 22.6387 213.189 22.8636 214.083 22.8636ZM225.557 5.81818V24H223.977V5.81818H225.557Z" fill="currentColor"/>
<path d="M10.163 5.9751H15.2324V17.4957C15.2324 19.454 14.9092 20.9274 14.2412 21.9456C12.9267 23.955 10.7017 25.151 7.69836 25.151C6.03371 25.151 4.61417 24.8466 3.4613 24.2109C1.12593 22.9126 0 21.1563 0 17.5199V5.9751H5.06939V17.4445C5.06939 19.7853 5.84785 20.9274 7.64449 20.9274C9.44113 20.9274 10.1657 20.1139 10.1657 17.4688V5.9751H10.163Z" fill="currentColor"/>
<path d="M27.9136 24.7926V16.9596C27.9136 15.0525 27.216 14.1636 25.581 14.1636C23.7843 14.1636 23.0328 15.1037 23.0328 17.0108V24.7926H18.5803V10.6781H22.7365V12.1784H22.7904C23.7278 10.7293 25.0423 10.1959 26.8389 10.1959C29.5217 10.1959 32.3635 11.6208 32.3635 15.7906V24.7926H27.911H27.9136Z" fill="currentColor"/>
<path d="M39.6899 10.6782H35.2373V24.7928H39.6899V10.6782Z" fill="currentColor"/>
<path d="M108.518 10.6782H104.065V24.7928H108.518V10.6782Z" fill="currentColor"/>
<path d="M51.6427 24.7927V13.8835H47.807V24.7927H43.3544V13.8835H41.6924V10.6781H43.3544V9.99126C43.3544 7.16835 44.9383 5.61682 49.1214 5.61682H49.7113V8.79798H49.3908C48.2649 8.79798 47.807 9.30708 47.807 10.2229V10.6808H56.0925V24.7954H51.64L51.6427 24.7927Z" fill="currentColor"/>
<path d="M62.9045 19.0203C63.147 20.623 64.5665 21.6897 66.3901 21.6897C67.5968 21.6897 68.3753 21.2561 69.0999 20.3672H73.6575C72.2352 23.446 69.5281 25.2507 66.3901 25.2507C62.0991 25.2507 58.5059 21.9699 58.5059 17.7732C58.5059 13.5765 61.9375 10.1934 66.3093 10.1934C70.681 10.1934 74.1666 13.5254 74.1666 17.8998C74.1666 18.3065 74.1396 18.6379 74.0588 19.0177H62.9018L62.9045 19.0203ZM69.7167 16.1732C69.3665 14.724 68.0278 13.757 66.312 13.757C64.7039 13.757 63.3086 14.6728 62.9611 16.1732H69.7194H69.7167Z" fill="currentColor"/>
<path d="M87.8948 24.7927V23.2681H87.8409C87.0086 24.5638 85.5082 25.2506 83.3884 25.2506C78.8819 25.2506 75.9324 21.9698 75.9324 17.6977C75.9324 13.4256 78.9628 10.196 83.3076 10.196C85.0234 10.196 86.4187 10.6782 87.6793 11.8741V5.9751H92.1319V24.7927H87.8948ZM87.9217 17.6708C87.9217 15.7125 86.3406 14.1368 84.1399 14.1368C81.9392 14.1368 80.385 15.6129 80.385 17.6708C80.385 19.7287 81.9661 21.3072 84.113 21.3072C86.2598 21.3072 87.9217 19.7557 87.9217 17.6708Z" fill="currentColor"/>
<path d="M112.213 24.7927V5.9751H118.971C121.439 5.9751 123.397 6.38183 124.792 7.11989C127.607 8.64447 129.377 11.5455 129.377 15.3839C129.377 21.59 125.514 24.7927 119.321 24.7927H112.216H112.213ZM119.561 20.5718C122.484 20.5718 124.307 18.8425 124.307 15.4081C124.307 11.9738 122.511 10.1933 119.588 10.1933H117.282V20.5718H119.561Z" fill="currentColor"/>
<path d="M108.741 7.3219C108.741 8.60406 107.644 9.6438 106.292 9.6438C104.94 9.6438 103.844 8.60406 103.844 7.3219C103.844 6.03974 104.937 5 106.292 5C107.647 5 108.741 6.03974 108.741 7.3219Z" fill="currentColor"/>
<path d="M54.2092 9.64649C52.857 9.64649 51.7607 8.60676 51.7607 7.32459C51.7607 6.04243 52.857 5 54.2092 5C55.5614 5 56.6577 6.03974 56.6577 7.32459C56.6577 8.60945 55.5614 9.64649 54.2092 9.64649Z" fill="currentColor"/>
<path d="M39.9137 7.3219C39.9137 8.60406 38.8174 9.6438 37.4652 9.6438C36.113 9.6438 35.0167 8.60406 35.0167 7.3219C35.0167 6.03974 36.1103 5 37.4625 5C38.8147 5 39.911 6.03974 39.911 7.3219" fill="currentColor"/>
<path d="M131.678 24.5369V23.2116C132.542 22.6783 133.17 22.2284 133.56 21.8486C134.36 21.0809 134.797 20.3968 134.797 19.8823C134.797 19.4944 134.522 19.2331 134.131 19.2331C133.636 19.2331 133.361 19.5671 133.323 20.289H131.61C131.61 18.7294 132.628 17.7355 134.196 17.7355C135.632 17.7355 136.593 18.619 136.593 19.6749C136.593 20.7308 135.977 21.7032 134.255 23.1012H136.642V24.5342H131.678V24.5369Z" fill="currentColor"/>
<path d="M143.203 20.1974C143.203 19.6102 142.947 19.2331 142.376 19.2331C141.843 19.2331 141.549 19.6291 141.549 20.1974V22.1988C141.549 22.7752 141.843 23.1631 142.376 23.1631C142.947 23.1631 143.203 22.7833 143.203 22.1988V20.1974ZM145 22.1638C145 23.7072 143.801 24.6635 142.403 24.6635C141.005 24.6635 139.75 23.6991 139.75 22.1638V20.2055C139.75 18.619 141.073 17.7355 142.384 17.7355C143.801 17.7355 145 18.7106 145 20.1894V22.1638Z" fill="currentColor"/>
<path d="M139.411 23.8015C139.411 24.3079 138.978 24.72 138.442 24.72C137.906 24.72 137.475 24.3079 137.475 23.8015C137.475 23.2951 137.908 22.8829 138.442 22.8829C138.975 22.8829 139.411 23.2924 139.411 23.8015Z" fill="currentColor"/>
</svg>
