<svg width="24" height="24" viewBox="0 0 24 24" fill="none" xmlns="http://www.w3.org/2000/svg">
<path d="M14.9414 2.24484L22.1415 18.5817C22.6975 19.5979 22.6688 20.8348 22.0648 21.8606C21.4512 22.8864 20.3774 23.5 19.179 23.5H4.80756C3.60914 23.5 2.53535 22.8864 1.92176 21.8606C1.31776 20.8348 1.289 19.5883 1.86424 18.5433L9.03555 2.28323C9.64914 1.15192 10.7517 0.5 11.9981 0.5C13.2444 0.5 14.347 1.15189 14.9414 2.24484Z" fill="#F7D031"/>
<path d="M13.2125 7.12468C12.5876 6.43826 11.4242 6.43826 10.7993 7.12468L10.7982 7.12599C10.4922 7.46696 10.3437 7.92128 10.3874 8.37563L11.0172 13.9404C11.0537 14.2565 11.3138 14.4948 11.6357 14.4948H12.3761C12.698 14.4948 12.9582 14.256 12.9947 13.9398L13.624 8.37982L13.6244 8.37563C13.6681 7.92128 13.5196 7.46696 13.2136 7.12598L13.2125 7.12468Z" fill="#564911"/>
<path d="M12.0055 16.6655C11.2541 16.6655 10.645 17.2747 10.645 18.026C10.645 18.7774 11.2541 19.3866 12.0055 19.3866C12.7569 19.3866 13.3661 18.7774 13.3661 18.026C13.3661 17.2747 12.7569 16.6655 12.0055 16.6655Z" fill="#564911"/>
</svg>
